<?xml version="1.0" encoding="UTF-8"?>
<svg width="110px" height="37px" viewBox="0 0 110 37" version="1.1" xmlns="http://www.w3.org/2000/svg" xmlns:xlink="http://www.w3.org/1999/xlink">
    <!-- Generator: Sketch 55 (78076) - https://sketchapp.com -->
    <title>Molecule/priority</title>
    <desc>Created with Sketch.</desc>
    <defs>
        <path d="M14.7791012,24.7626133 L8.69715548,27.4003003 C7.80026889,27.7892723 6.75051985,27.394098 6.35247538,26.517654 C6.22654228,26.2403651 6.17715783,25.9356708 6.20924174,25.6339249 L6.89691804,19.1664005 C6.9488052,18.6784071 6.78698975,18.1917415 6.45148655,17.8267499 L2.00496106,12.9894057 C1.34924507,12.2760569 1.40945388,11.1783263 2.13944121,10.5375559 C2.37039421,10.3348293 2.6516741,10.1947767 2.95525955,10.1313502 L9.46221263,8.77188736 C9.95318105,8.66931196 10.3768194,8.36853612 10.6283674,7.94393779 L13.9622093,2.31660761 C14.4538411,1.48676183 15.5408012,1.20350126 16.3900027,1.68392742 C16.6586726,1.83592439 16.8818976,2.05406145 17.0374398,2.31660761 L20.3712817,7.94393779 C20.6228297,8.36853612 21.046468,8.66931196 21.5374364,8.77188736 L28.0443895,10.1313502 C29.0039507,10.3318262 29.6155202,11.2544921 29.4103682,12.1921822 C29.3454623,12.4888481 29.2021431,12.7637168 28.994688,12.9894057 L24.5481625,17.8267499 C24.2126593,18.1917415 24.0508438,18.6784071 24.102731,19.1664005 L24.7904073,25.6339249 C24.8918169,26.5876717 24.1828275,27.4411711 23.2068352,27.5402693 C22.8980512,27.5716219 22.5862501,27.5233631 22.3024936,27.4003003 L16.2205478,24.7626133 C15.7616474,24.5635922 15.2380016,24.5635922 14.7791012,24.7626133 L14.7791012,24.7626133 Z" id="path-1"></path>
        <polygon id="path-3" points="0 0 31 0 31 29 0 29"></polygon>
        <path d="M14.7791012,24.7626133 L8.69715548,27.4003003 C7.80026889,27.7892723 6.75051985,27.394098 6.35247538,26.517654 C6.22654228,26.2403651 6.17715783,25.9356708 6.20924174,25.6339249 L6.89691804,19.1664005 C6.9488052,18.6784071 6.78698975,18.1917415 6.45148655,17.8267499 L2.00496106,12.9894057 C1.34924507,12.2760569 1.40945388,11.1783263 2.13944121,10.5375559 C2.37039421,10.3348293 2.6516741,10.1947767 2.95525955,10.1313502 L9.46221263,8.77188736 C9.95318105,8.66931196 10.3768194,8.36853612 10.6283674,7.94393779 L13.9622093,2.31660761 C14.4538411,1.48676183 15.5408012,1.20350126 16.3900027,1.68392742 C16.6586726,1.83592439 16.8818976,2.05406145 17.0374398,2.31660761 L20.3712817,7.94393779 C20.6228297,8.36853612 21.046468,8.66931196 21.5374364,8.77188736 L28.0443895,10.1313502 C29.0039507,10.3318262 29.6155202,11.2544921 29.4103682,12.1921822 C29.3454623,12.4888481 29.2021431,12.7637168 28.994688,12.9894057 L24.5481625,17.8267499 C24.2126593,18.1917415 24.0508438,18.6784071 24.102731,19.1664005 L24.7904073,25.6339249 C24.8918169,26.5876717 24.1828275,27.4411711 23.2068352,27.5402693 C22.8980512,27.5716219 22.5862501,27.5233631 22.3024936,27.4003003 L16.2205478,24.7626133 C15.7616474,24.5635922 15.2380016,24.5635922 14.7791012,24.7626133 L14.7791012,24.7626133 Z" id="path-5"></path>
        <polygon id="path-7" points="0 0 31 0 31 29 0 29"></polygon>
        <path d="M14.7791012,24.7626133 L8.69715548,27.4003003 C7.80026889,27.7892723 6.75051985,27.394098 6.35247538,26.517654 C6.22654228,26.2403651 6.17715783,25.9356708 6.20924174,25.6339249 L6.89691804,19.1664005 C6.9488052,18.6784071 6.78698975,18.1917415 6.45148655,17.8267499 L2.00496106,12.9894057 C1.34924507,12.2760569 1.40945388,11.1783263 2.13944121,10.5375559 C2.37039421,10.3348293 2.6516741,10.1947767 2.95525955,10.1313502 L9.46221263,8.77188736 C9.95318105,8.66931196 10.3768194,8.36853612 10.6283674,7.94393779 L13.9622093,2.31660761 C14.4538411,1.48676183 15.5408012,1.20350126 16.3900027,1.68392742 C16.6586726,1.83592439 16.8818976,2.05406145 17.0374398,2.31660761 L20.3712817,7.94393779 C20.6228297,8.36853612 21.046468,8.66931196 21.5374364,8.77188736 L28.0443895,10.1313502 C29.0039507,10.3318262 29.6155202,11.2544921 29.4103682,12.1921822 C29.3454623,12.4888481 29.2021431,12.7637168 28.994688,12.9894057 L24.5481625,17.8267499 C24.2126593,18.1917415 24.0508438,18.6784071 24.102731,19.1664005 L24.7904073,25.6339249 C24.8918169,26.5876717 24.1828275,27.4411711 23.2068352,27.5402693 C22.8980512,27.5716219 22.5862501,27.5233631 22.3024936,27.4003003 L16.2205478,24.7626133 C15.7616474,24.5635922 15.2380016,24.5635922 14.7791012,24.7626133 L14.7791012,24.7626133 Z" id="path-9"></path>
        <polygon id="path-11" points="0 0 31 0 31 29 0 29"></polygon>
    </defs>
    <g id="Symbols" stroke="none" stroke-width="1" fill="none" fill-rule="evenodd">
        <g id="Molecule/indicator/status" transform="translate(-29.000000, -60.000000)">
            <g id="Molecule/priority" transform="translate(33.000000, 64.000000)">
                <g id="atom/icon/star" transform="translate(71.090909, 0.000000)">
                    <mask id="mask-2" fill="white">
                        <use xlink:href="#path-1"></use>
                    </mask>
                    <path stroke="#5D5D5D" stroke-width="5" d="M15.4998245,27.1750283 L9.69186529,29.6938898 C7.55124372,30.6222587 5.04184755,29.6776057 4.07622746,27.5514313 C3.76597525,26.8682948 3.64395211,26.1154311 3.72325498,25.3695959 L4.37290995,19.2596581 L0.16440737,14.6812574 C-1.44183799,12.9338342 -1.29321761,10.224179 0.490220391,8.65870769 C1.04593266,8.17091297 1.71944472,7.83556327 2.44398715,7.6841885 L8.64384475,6.38888545 L11.8113342,1.0423484 C12.9999975,-0.964045762 15.592438,-1.63963278 17.6210055,-0.491993573 C18.2686514,-0.1255952 18.8094928,0.402918904 19.1883148,1.0423484 L22.3558043,6.38888545 L28.5556619,7.6841885 C30.8642354,8.16650641 32.3573986,10.4192198 31.8526007,12.7265046 C31.6928804,13.4565395 31.3414295,14.1305791 30.8352417,14.6812574 L26.6267391,19.2596581 L27.2763941,25.3695959 C27.5256385,27.7137137 25.8011404,29.7897082 23.4593763,30.0274812 C22.7255127,30.1019946 21.9842458,29.9872655 21.3077838,29.6938898 L15.4998245,27.1750283 Z"></path>
                    <g id="Colour/@Hash" mask="url(#mask-2)">
                        <mask id="mask-4" fill="white">
                            <use xlink:href="#path-3"></use>
                        </mask>
                        <g id="Mask"></g>
                        <g id="Group" stroke-width="1" fill-rule="evenodd" mask="url(#mask-4)" stroke="#979797">
                            <g transform="translate(15.320376, 14.331965) rotate(-45.191276) translate(-15.320376, -14.331965) translate(-15.679624, -14.668035)" stroke-width="0.5">
                                <path d="M-25.7417214,28.4653232 L30.1272106,28.5211971" id="Path-2" transform="translate(2.192745, 28.493260) rotate(-90.249842) translate(-2.192745, -28.493260) "></path>
                                <path d="M-23.1933656,28.4509038 L32.6755663,28.5067777" id="Path-2-Copy" transform="translate(4.741100, 28.478841) rotate(-90.249842) translate(-4.741100, -28.478841) "></path>
                                <path d="M-20.853412,28.4376636 L35.0155199,28.4935374" id="Path-2-Copy-2" transform="translate(7.081054, 28.465600) rotate(-90.249842) translate(-7.081054, -28.465600) "></path>
                                <path d="M-18.5134584,28.4244233 L37.3554735,28.4802972" id="Path-2-Copy-3" transform="translate(9.421008, 28.452360) rotate(-90.249842) translate(-9.421008, -28.452360) "></path>
                                <path d="M-16.1735048,28.4111831 L39.6954271,28.467057" id="Path-2-Copy-4" transform="translate(11.760961, 28.439120) rotate(-90.249842) translate(-11.760961, -28.439120) "></path>
                                <path d="M-13.8335512,28.3979429 L42.0353807,28.4538167" id="Path-2-Copy-5" transform="translate(14.100915, 28.425880) rotate(-90.249842) translate(-14.100915, -28.425880) "></path>
                                <path d="M-11.4935976,28.3847026 L44.3753343,28.4405765" id="Path-2-Copy-6" transform="translate(16.440868, 28.412640) rotate(-90.249842) translate(-16.440868, -28.412640) "></path>
                                <path d="M-9.15364404,28.3714624 L46.7152879,28.4273363" id="Path-2-Copy-7" transform="translate(18.780822, 28.399399) rotate(-90.249842) translate(-18.780822, -28.399399) "></path>
                                <path d="M-6.81369044,28.3582222 L49.0552415,28.414096" id="Path-2-Copy-8" transform="translate(21.120776, 28.386159) rotate(-90.249842) translate(-21.120776, -28.386159) "></path>
                                <path d="M-4.47373684,28.3449819 L51.3951951,28.4008558" id="Path-2-Copy-9" transform="translate(23.460729, 28.372919) rotate(-90.249842) translate(-23.460729, -28.372919) "></path>
                                <path d="M-2.13378325,28.3317417 L53.7351487,28.3876156" id="Path-2-Copy-10" transform="translate(25.800683, 28.359679) rotate(-90.249842) translate(-25.800683, -28.359679) "></path>
                                <path d="M0.206170353,28.3185015 L56.0751023,28.3743753" id="Path-2-Copy-11" transform="translate(28.140636, 28.346438) rotate(-90.249842) translate(-28.140636, -28.346438) "></path>
                                <path d="M2.54612395,28.3052612 L58.4150559,28.3611351" id="Path-2-Copy-12" transform="translate(30.480590, 28.333198) rotate(-90.249842) translate(-30.480590, -28.333198) "></path>
                                <path d="M4.88607755,28.292021 L60.7550095,28.3478949" id="Path-2-Copy-13" transform="translate(32.820544, 28.319958) rotate(-90.249842) translate(-32.820544, -28.319958) "></path>
                                <path d="M7.22603115,28.2787808 L63.0949631,28.3346546" id="Path-2-Copy-14" transform="translate(35.160497, 28.306718) rotate(-90.249842) translate(-35.160497, -28.306718) "></path>
                                <path d="M9.56598475,28.2655405 L65.4349167,28.3214144" id="Path-2-Copy-15" transform="translate(37.500451, 28.293477) rotate(-90.249842) translate(-37.500451, -28.293477) "></path>
                                <path d="M11.9059383,28.2523003 L67.7748703,28.3081742" id="Path-2-Copy-16" transform="translate(39.840404, 28.280237) rotate(-90.249842) translate(-39.840404, -28.280237) "></path>
                                <path d="M14.2458919,28.2390601 L70.1148239,28.2949339" id="Path-2-Copy-17" transform="translate(42.180358, 28.266997) rotate(-90.249842) translate(-42.180358, -28.266997) "></path>
                                <path d="M16.5858455,28.2258198 L72.4547775,28.2816937" id="Path-2-Copy-18" transform="translate(44.520312, 28.253757) rotate(-90.249842) translate(-44.520312, -28.253757) "></path>
                                <path d="M18.9257991,28.2125796 L74.7947311,28.2684535" id="Path-2-Copy-19" transform="translate(46.860265, 28.240517) rotate(-90.249842) translate(-46.860265, -28.240517) "></path>
                                <path d="M21.2590072,28.2250961 L77.1279392,28.28097" id="Path-2-Copy-20" transform="translate(49.193473, 28.253033) rotate(-90.249842) translate(-49.193473, -28.253033) "></path>
                                <path d="M23.5989831,28.2250961 L79.4679151,28.28097" id="Path-2-Copy-21" transform="translate(51.533449, 28.253033) rotate(-90.249842) translate(-51.533449, -28.253033) "></path>
                                <path d="M25.9389589,28.2250961 L81.8078909,28.28097" id="Path-2-Copy-22" transform="translate(53.873425, 28.253033) rotate(-90.249842) translate(-53.873425, -28.253033) "></path>
                                <path d="M28.2789348,28.2250961 L84.1478668,28.28097" id="Path-2-Copy-23" transform="translate(56.213401, 28.253033) rotate(-90.249842) translate(-56.213401, -28.253033) "></path>
                                <path d="M30.6189106,28.2250961 L86.4878426,28.28097" id="Path-2-Copy-24" transform="translate(58.553377, 28.253033) rotate(-90.249842) translate(-58.553377, -28.253033) "></path>
                                <path d="M32.9588865,28.2250961 L88.8278185,28.28097" id="Path-2-Copy-25" transform="translate(60.893352, 28.253033) rotate(-90.249842) translate(-60.893352, -28.253033) "></path>
                            </g>
                        </g>
                    </g>
                </g>
                <g id="atom/icon/star" transform="translate(35.545455, 0.000000)">
                    <mask id="mask-6" fill="white">
                        <use xlink:href="#path-5"></use>
                    </mask>
                    <path stroke="#5D5D5D" stroke-width="5" d="M15.4998245,27.1750283 L9.69186529,29.6938898 C7.55124372,30.6222587 5.04184755,29.6776057 4.07622746,27.5514313 C3.76597525,26.8682948 3.64395211,26.1154311 3.72325498,25.3695959 L4.37290995,19.2596581 L0.16440737,14.6812574 C-1.44183799,12.9338342 -1.29321761,10.224179 0.490220391,8.65870769 C1.04593266,8.17091297 1.71944472,7.83556327 2.44398715,7.6841885 L8.64384475,6.38888545 L11.8113342,1.0423484 C12.9999975,-0.964045762 15.592438,-1.63963278 17.6210055,-0.491993573 C18.2686514,-0.1255952 18.8094928,0.402918904 19.1883148,1.0423484 L22.3558043,6.38888545 L28.5556619,7.6841885 C30.8642354,8.16650641 32.3573986,10.4192198 31.8526007,12.7265046 C31.6928804,13.4565395 31.3414295,14.1305791 30.8352417,14.6812574 L26.6267391,19.2596581 L27.2763941,25.3695959 C27.5256385,27.7137137 25.8011404,29.7897082 23.4593763,30.0274812 C22.7255127,30.1019946 21.9842458,29.9872655 21.3077838,29.6938898 L15.4998245,27.1750283 Z"></path>
                    <g id="Colour/@Hash" mask="url(#mask-6)">
                        <mask id="mask-8" fill="white">
                            <use xlink:href="#path-7"></use>
                        </mask>
                        <g id="Mask"></g>
                        <g id="Group" stroke-width="1" fill-rule="evenodd" mask="url(#mask-8)" stroke="#979797">
                            <g transform="translate(15.320376, 14.331965) rotate(-45.191276) translate(-15.320376, -14.331965) translate(-15.679624, -14.668035)" stroke-width="0.5">
                                <path d="M-25.7417214,28.4653232 L30.1272106,28.5211971" id="Path-2" transform="translate(2.192745, 28.493260) rotate(-90.249842) translate(-2.192745, -28.493260) "></path>
                                <path d="M-23.1933656,28.4509038 L32.6755663,28.5067777" id="Path-2-Copy" transform="translate(4.741100, 28.478841) rotate(-90.249842) translate(-4.741100, -28.478841) "></path>
                                <path d="M-20.853412,28.4376636 L35.0155199,28.4935374" id="Path-2-Copy-2" transform="translate(7.081054, 28.465600) rotate(-90.249842) translate(-7.081054, -28.465600) "></path>
                                <path d="M-18.5134584,28.4244233 L37.3554735,28.4802972" id="Path-2-Copy-3" transform="translate(9.421008, 28.452360) rotate(-90.249842) translate(-9.421008, -28.452360) "></path>
                                <path d="M-16.1735048,28.4111831 L39.6954271,28.467057" id="Path-2-Copy-4" transform="translate(11.760961, 28.439120) rotate(-90.249842) translate(-11.760961, -28.439120) "></path>
                                <path d="M-13.8335512,28.3979429 L42.0353807,28.4538167" id="Path-2-Copy-5" transform="translate(14.100915, 28.425880) rotate(-90.249842) translate(-14.100915, -28.425880) "></path>
                                <path d="M-11.4935976,28.3847026 L44.3753343,28.4405765" id="Path-2-Copy-6" transform="translate(16.440868, 28.412640) rotate(-90.249842) translate(-16.440868, -28.412640) "></path>
                                <path d="M-9.15364404,28.3714624 L46.7152879,28.4273363" id="Path-2-Copy-7" transform="translate(18.780822, 28.399399) rotate(-90.249842) translate(-18.780822, -28.399399) "></path>
                                <path d="M-6.81369044,28.3582222 L49.0552415,28.414096" id="Path-2-Copy-8" transform="translate(21.120776, 28.386159) rotate(-90.249842) translate(-21.120776, -28.386159) "></path>
                                <path d="M-4.47373684,28.3449819 L51.3951951,28.4008558" id="Path-2-Copy-9" transform="translate(23.460729, 28.372919) rotate(-90.249842) translate(-23.460729, -28.372919) "></path>
                                <path d="M-2.13378325,28.3317417 L53.7351487,28.3876156" id="Path-2-Copy-10" transform="translate(25.800683, 28.359679) rotate(-90.249842) translate(-25.800683, -28.359679) "></path>
                                <path d="M0.206170353,28.3185015 L56.0751023,28.3743753" id="Path-2-Copy-11" transform="translate(28.140636, 28.346438) rotate(-90.249842) translate(-28.140636, -28.346438) "></path>
                                <path d="M2.54612395,28.3052612 L58.4150559,28.3611351" id="Path-2-Copy-12" transform="translate(30.480590, 28.333198) rotate(-90.249842) translate(-30.480590, -28.333198) "></path>
                                <path d="M4.88607755,28.292021 L60.7550095,28.3478949" id="Path-2-Copy-13" transform="translate(32.820544, 28.319958) rotate(-90.249842) translate(-32.820544, -28.319958) "></path>
                                <path d="M7.22603115,28.2787808 L63.0949631,28.3346546" id="Path-2-Copy-14" transform="translate(35.160497, 28.306718) rotate(-90.249842) translate(-35.160497, -28.306718) "></path>
                                <path d="M9.56598475,28.2655405 L65.4349167,28.3214144" id="Path-2-Copy-15" transform="translate(37.500451, 28.293477) rotate(-90.249842) translate(-37.500451, -28.293477) "></path>
                                <path d="M11.9059383,28.2523003 L67.7748703,28.3081742" id="Path-2-Copy-16" transform="translate(39.840404, 28.280237) rotate(-90.249842) translate(-39.840404, -28.280237) "></path>
                                <path d="M14.2458919,28.2390601 L70.1148239,28.2949339" id="Path-2-Copy-17" transform="translate(42.180358, 28.266997) rotate(-90.249842) translate(-42.180358, -28.266997) "></path>
                                <path d="M16.5858455,28.2258198 L72.4547775,28.2816937" id="Path-2-Copy-18" transform="translate(44.520312, 28.253757) rotate(-90.249842) translate(-44.520312, -28.253757) "></path>
                                <path d="M18.9257991,28.2125796 L74.7947311,28.2684535" id="Path-2-Copy-19" transform="translate(46.860265, 28.240517) rotate(-90.249842) translate(-46.860265, -28.240517) "></path>
                                <path d="M21.2590072,28.2250961 L77.1279392,28.28097" id="Path-2-Copy-20" transform="translate(49.193473, 28.253033) rotate(-90.249842) translate(-49.193473, -28.253033) "></path>
                                <path d="M23.5989831,28.2250961 L79.4679151,28.28097" id="Path-2-Copy-21" transform="translate(51.533449, 28.253033) rotate(-90.249842) translate(-51.533449, -28.253033) "></path>
                                <path d="M25.9389589,28.2250961 L81.8078909,28.28097" id="Path-2-Copy-22" transform="translate(53.873425, 28.253033) rotate(-90.249842) translate(-53.873425, -28.253033) "></path>
                                <path d="M28.2789348,28.2250961 L84.1478668,28.28097" id="Path-2-Copy-23" transform="translate(56.213401, 28.253033) rotate(-90.249842) translate(-56.213401, -28.253033) "></path>
                                <path d="M30.6189106,28.2250961 L86.4878426,28.28097" id="Path-2-Copy-24" transform="translate(58.553377, 28.253033) rotate(-90.249842) translate(-58.553377, -28.253033) "></path>
                                <path d="M32.9588865,28.2250961 L88.8278185,28.28097" id="Path-2-Copy-25" transform="translate(60.893352, 28.253033) rotate(-90.249842) translate(-60.893352, -28.253033) "></path>
                            </g>
                        </g>
                    </g>
                </g>
                <g id="atom/icon/star">
                    <mask id="mask-10" fill="white">
                        <use xlink:href="#path-9"></use>
                    </mask>
                    <path stroke="#5D5D5D" stroke-width="5" d="M15.4998245,27.1750283 L9.69186529,29.6938898 C7.55124372,30.6222587 5.04184755,29.6776057 4.07622746,27.5514313 C3.76597525,26.8682948 3.64395211,26.1154311 3.72325498,25.3695959 L4.37290995,19.2596581 L0.16440737,14.6812574 C-1.44183799,12.9338342 -1.29321761,10.224179 0.490220391,8.65870769 C1.04593266,8.17091297 1.71944472,7.83556327 2.44398715,7.6841885 L8.64384475,6.38888545 L11.8113342,1.0423484 C12.9999975,-0.964045762 15.592438,-1.63963278 17.6210055,-0.491993573 C18.2686514,-0.1255952 18.8094928,0.402918904 19.1883148,1.0423484 L22.3558043,6.38888545 L28.5556619,7.6841885 C30.8642354,8.16650641 32.3573986,10.4192198 31.8526007,12.7265046 C31.6928804,13.4565395 31.3414295,14.1305791 30.8352417,14.6812574 L26.6267391,19.2596581 L27.2763941,25.3695959 C27.5256385,27.7137137 25.8011404,29.7897082 23.4593763,30.0274812 C22.7255127,30.1019946 21.9842458,29.9872655 21.3077838,29.6938898 L15.4998245,27.1750283 Z"></path>
                    <g id="Colour/@Hash" mask="url(#mask-10)">
                        <mask id="mask-12" fill="white">
                            <use xlink:href="#path-11"></use>
                        </mask>
                        <g id="Mask"></g>
                        <g id="Group" stroke-width="1" fill-rule="evenodd" mask="url(#mask-12)" stroke="#979797">
                            <g transform="translate(15.320376, 14.331965) rotate(-45.191276) translate(-15.320376, -14.331965) translate(-15.679624, -14.668035)" stroke-width="0.5">
                                <path d="M-25.7417214,28.4653232 L30.1272106,28.5211971" id="Path-2" transform="translate(2.192745, 28.493260) rotate(-90.249842) translate(-2.192745, -28.493260) "></path>
                                <path d="M-23.1933656,28.4509038 L32.6755663,28.5067777" id="Path-2-Copy" transform="translate(4.741100, 28.478841) rotate(-90.249842) translate(-4.741100, -28.478841) "></path>
                                <path d="M-20.853412,28.4376636 L35.0155199,28.4935374" id="Path-2-Copy-2" transform="translate(7.081054, 28.465600) rotate(-90.249842) translate(-7.081054, -28.465600) "></path>
                                <path d="M-18.5134584,28.4244233 L37.3554735,28.4802972" id="Path-2-Copy-3" transform="translate(9.421008, 28.452360) rotate(-90.249842) translate(-9.421008, -28.452360) "></path>
                                <path d="M-16.1735048,28.4111831 L39.6954271,28.467057" id="Path-2-Copy-4" transform="translate(11.760961, 28.439120) rotate(-90.249842) translate(-11.760961, -28.439120) "></path>
                                <path d="M-13.8335512,28.3979429 L42.0353807,28.4538167" id="Path-2-Copy-5" transform="translate(14.100915, 28.425880) rotate(-90.249842) translate(-14.100915, -28.425880) "></path>
                                <path d="M-11.4935976,28.3847026 L44.3753343,28.4405765" id="Path-2-Copy-6" transform="translate(16.440868, 28.412640) rotate(-90.249842) translate(-16.440868, -28.412640) "></path>
                                <path d="M-9.15364404,28.3714624 L46.7152879,28.4273363" id="Path-2-Copy-7" transform="translate(18.780822, 28.399399) rotate(-90.249842) translate(-18.780822, -28.399399) "></path>
                                <path d="M-6.81369044,28.3582222 L49.0552415,28.414096" id="Path-2-Copy-8" transform="translate(21.120776, 28.386159) rotate(-90.249842) translate(-21.120776, -28.386159) "></path>
                                <path d="M-4.47373684,28.3449819 L51.3951951,28.4008558" id="Path-2-Copy-9" transform="translate(23.460729, 28.372919) rotate(-90.249842) translate(-23.460729, -28.372919) "></path>
                                <path d="M-2.13378325,28.3317417 L53.7351487,28.3876156" id="Path-2-Copy-10" transform="translate(25.800683, 28.359679) rotate(-90.249842) translate(-25.800683, -28.359679) "></path>
                                <path d="M0.206170353,28.3185015 L56.0751023,28.3743753" id="Path-2-Copy-11" transform="translate(28.140636, 28.346438) rotate(-90.249842) translate(-28.140636, -28.346438) "></path>
                                <path d="M2.54612395,28.3052612 L58.4150559,28.3611351" id="Path-2-Copy-12" transform="translate(30.480590, 28.333198) rotate(-90.249842) translate(-30.480590, -28.333198) "></path>
                                <path d="M4.88607755,28.292021 L60.7550095,28.3478949" id="Path-2-Copy-13" transform="translate(32.820544, 28.319958) rotate(-90.249842) translate(-32.820544, -28.319958) "></path>
                                <path d="M7.22603115,28.2787808 L63.0949631,28.3346546" id="Path-2-Copy-14" transform="translate(35.160497, 28.306718) rotate(-90.249842) translate(-35.160497, -28.306718) "></path>
                                <path d="M9.56598475,28.2655405 L65.4349167,28.3214144" id="Path-2-Copy-15" transform="translate(37.500451, 28.293477) rotate(-90.249842) translate(-37.500451, -28.293477) "></path>
                                <path d="M11.9059383,28.2523003 L67.7748703,28.3081742" id="Path-2-Copy-16" transform="translate(39.840404, 28.280237) rotate(-90.249842) translate(-39.840404, -28.280237) "></path>
                                <path d="M14.2458919,28.2390601 L70.1148239,28.2949339" id="Path-2-Copy-17" transform="translate(42.180358, 28.266997) rotate(-90.249842) translate(-42.180358, -28.266997) "></path>
                                <path d="M16.5858455,28.2258198 L72.4547775,28.2816937" id="Path-2-Copy-18" transform="translate(44.520312, 28.253757) rotate(-90.249842) translate(-44.520312, -28.253757) "></path>
                                <path d="M18.9257991,28.2125796 L74.7947311,28.2684535" id="Path-2-Copy-19" transform="translate(46.860265, 28.240517) rotate(-90.249842) translate(-46.860265, -28.240517) "></path>
                                <path d="M21.2590072,28.2250961 L77.1279392,28.28097" id="Path-2-Copy-20" transform="translate(49.193473, 28.253033) rotate(-90.249842) translate(-49.193473, -28.253033) "></path>
                                <path d="M23.5989831,28.2250961 L79.4679151,28.28097" id="Path-2-Copy-21" transform="translate(51.533449, 28.253033) rotate(-90.249842) translate(-51.533449, -28.253033) "></path>
                                <path d="M25.9389589,28.2250961 L81.8078909,28.28097" id="Path-2-Copy-22" transform="translate(53.873425, 28.253033) rotate(-90.249842) translate(-53.873425, -28.253033) "></path>
                                <path d="M28.2789348,28.2250961 L84.1478668,28.28097" id="Path-2-Copy-23" transform="translate(56.213401, 28.253033) rotate(-90.249842) translate(-56.213401, -28.253033) "></path>
                                <path d="M30.6189106,28.2250961 L86.4878426,28.28097" id="Path-2-Copy-24" transform="translate(58.553377, 28.253033) rotate(-90.249842) translate(-58.553377, -28.253033) "></path>
                                <path d="M32.9588865,28.2250961 L88.8278185,28.28097" id="Path-2-Copy-25" transform="translate(60.893352, 28.253033) rotate(-90.249842) translate(-60.893352, -28.253033) "></path>
                            </g>
                        </g>
                    </g>
                </g>
            </g>
        </g>
    </g>
</svg>