<?xml version="1.0" encoding="UTF-8"?>
<svg width="20px" height="20px" viewBox="0 0 20 20" version="1.1" xmlns="http://www.w3.org/2000/svg" xmlns:xlink="http://www.w3.org/1999/xlink">
    <!-- Generator: Sketch 55 (78076) - https://sketchapp.com -->
    <title>Assign process</title>
    <desc>Created with Sketch.</desc>
    <defs>
        <circle id="path-1" cx="10" cy="10" r="10"></circle>
        <path d="M5.51585514,7.78218877 L5.12690761,7.39133116 C4.50360111,6.76496367 4.50608254,5.75190274 5.13245003,5.12859624 C5.75881752,4.50528975 6.77187845,4.50777118 7.39518494,5.13413867 L7.77796692,5.51880045 C7.97755359,5.41971908 8.18470094,5.33357906 8.39831136,5.26147798 L8.39831136,4.6 C8.39831136,3.7163444 9.11465576,3 9.99831136,3 C10.881967,3 11.5983114,3.7163444 11.5983114,4.6 L11.5983114,5.26147798 C11.854914,5.34809045 12.1021902,5.45496165 12.3382373,5.58018891 L12.7933219,5.12789096 C13.4200768,4.50497398 14.433136,4.50808521 15.056053,5.13484007 C15.6789699,5.76159494 15.6758587,6.77465413 15.0491038,7.3975711 L14.5392485,7.90430438 C14.620828,8.08077554 14.6924231,8.26280744 14.7533092,8.44967543 L15.4117387,8.4524611 C16.2953864,8.45619961 17.0086938,9.17556826 17.0049552,10.0592159 C17.0012167,10.9428636 16.2818481,11.656171 15.3982004,11.6524325 L14.7198122,11.6495624 C14.648577,11.8534736 14.5645055,12.051361 14.4685659,12.2422563 L15.0132096,12.7895747 C15.6365161,13.4159422 15.6340347,14.4290031 15.0076672,15.0523096 C14.3812997,15.6756161 13.3682388,15.6731347 12.7449323,15.0467672 L12.1941509,14.4932809 C12.002129,14.5872974 11.803193,14.6693672 11.5983114,14.738522 L11.5983114,15.4 C11.5983114,16.2836556 10.881967,17 9.99831136,17 C9.11465576,17 8.39831136,16.2836556 8.39831136,15.4 L8.39831136,14.738522 C8.21903175,14.6780088 8.04430471,14.6076066 7.87477912,14.5279643 L7.38893335,15.0108351 C6.76217848,15.633752 5.7491193,15.6306408 5.12620232,15.0038859 C4.50328535,14.3771311 4.50639657,13.3640719 5.13315144,12.7411549 L5.56419201,12.3127538 C5.4466533,12.0878643 5.34572162,11.8529214 5.26302459,11.6095528 L4.59829704,11.6067405 C3.71464935,11.603002 3.00134203,10.8836334 3.00508054,9.99998568 C3.00881905,9.11633799 3.7281877,8.40303066 4.61183539,8.40676917 L5.25659445,8.409497 C5.32903801,8.19343266 5.41583585,7.98395231 5.51585514,7.78218877 Z M10,12 C11.1045695,12 12,11.1045695 12,10 C12,8.8954305 11.1045695,8 10,8 C8.8954305,8 8,8.8954305 8,10 C8,11.1045695 8.8954305,12 10,12 Z" id="path-3"></path>
        <path d="M10,20 C4.4771525,20 0,15.5228475 0,10 C0,4.4771525 4.4771525,0 10,0 C15.5228475,0 20,4.4771525 20,10 C20,15.5228475 15.5228475,20 10,20 Z M10,19.4594595 C15.2243152,19.4594595 19.4594595,15.2243152 19.4594595,10 C19.4594595,4.7756848 15.2243152,0.540540541 10,0.540540541 C4.7756848,0.540540541 0.540540541,4.7756848 0.540540541,10 C0.540540541,15.2243152 4.7756848,19.4594595 10,19.4594595 Z" id="path-5"></path>
    </defs>
    <g id="Symbols" stroke="none" stroke-width="1" fill="none" fill-rule="evenodd">
        <g id="Molecule/indicator/status" transform="translate(-5.000000, -106.000000)">
            <g id="atom/button/circular" transform="translate(5.000000, 106.000000)">
                <mask id="mask-2" fill="white">
                    <use xlink:href="#path-1"></use>
                </mask>
                <g id="Background"></g>
                <g id="atom/icon/cog" mask="url(#mask-2)">
                    <mask id="mask-4" fill="white">
                        <use xlink:href="#path-3"></use>
                    </mask>
                    <use id="Combined-Shape" fill="#D8D8D8" fill-rule="evenodd" xlink:href="#path-3"></use>
                    <g id="Colour/@prism-paper" mask="url(#mask-4)" fill="#FFFFFF" fill-rule="evenodd">
                        <rect id="Rectangle" x="0" y="0" width="20" height="20"></rect>
                    </g>
                </g>
                <mask id="mask-6" fill="white">
                    <use xlink:href="#path-5"></use>
                </mask>
                <use id="Background" fill="#979797" fill-rule="nonzero" xlink:href="#path-5"></use>
                <g id="Colour/@prism-paper" mask="url(#mask-6)" fill="#FFFFFF" fill-rule="evenodd">
                    <rect id="Rectangle" x="0" y="0" width="20" height="20"></rect>
                </g>
            </g>
        </g>
    </g>
</svg>