<?xml version="1.0" encoding="UTF-8"?>
<svg width="10px" height="10px" viewBox="0 0 10 10" version="1.1" xmlns="http://www.w3.org/2000/svg" xmlns:xlink="http://www.w3.org/1999/xlink">
    <!-- Generator: Sketch 55 (78076) - https://sketchapp.com -->
    <title>Decrease-button</title>
    <desc>Created with Sketch.</desc>
    <defs>
        <circle id="path-1" cx="5" cy="5" r="5"></circle>
        <path d="M5.01666667,2.5 L5.01666667,2.5 C5.24678531,2.5 5.43333333,2.68654802 5.43333333,2.91666667 L5.43333333,7.08333333 C5.43333333,7.31345198 5.24678531,7.5 5.01666667,7.5 L5.01666667,7.5 C4.78654802,7.5 4.6,7.31345198 4.6,7.08333333 L4.6,2.91666667 C4.6,2.68654802 4.78654802,2.5 5.01666667,2.5 Z" id="path-3"></path>
        <path d="M5,10 C2.23857625,10 0,7.76142375 0,5 C0,2.23857625 2.23857625,0 5,0 C7.76142375,0 10,2.23857625 10,5 C10,7.76142375 7.76142375,10 5,10 Z M5,9.72972973 C7.6121576,9.72972973 9.72972973,7.6121576 9.72972973,5 C9.72972973,2.3878424 7.6121576,0.27027027 5,0.27027027 C2.3878424,0.27027027 0.27027027,2.3878424 0.27027027,5 C0.27027027,7.6121576 2.3878424,9.72972973 5,9.72972973 Z" id="path-5"></path>
    </defs>
    <g id="Symbols" stroke="none" stroke-width="1" fill="none" fill-rule="evenodd">
        <g id="Molecule/indicator/status" transform="translate(-28.000000, -35.000000)">
            <g id="atom/button/circular" transform="translate(28.000000, 35.000000)">
                <mask id="mask-2" fill="white">
                    <use xlink:href="#path-1"></use>
                </mask>
                <g id="Background"></g>
                <g id="Colour/@prism-paper" mask="url(#mask-2)" fill="#FFFFFF" fill-rule="evenodd">
                    <rect id="Rectangle" x="0" y="0" width="10" height="10"></rect>
                </g>
                <g id="atom/icon/minus" mask="url(#mask-2)">
                    <mask id="mask-4" fill="white">
                        <use xlink:href="#path-3"></use>
                    </mask>
                    <g id="minus-symbol" transform="translate(5.016667, 5.000000) rotate(89.771862) translate(-5.016667, -5.000000) "></g>
                    <g id="Colour/@prism-prime" mask="url(#mask-4)" fill="#0C75B7" fill-rule="evenodd">
                        <rect id="Rectangle" x="0" y="0" width="10" height="10"></rect>
                    </g>
                </g>
                <mask id="mask-6" fill="white">
                    <use xlink:href="#path-5"></use>
                </mask>
                <use id="Background" fill="#979797" fill-rule="nonzero" xlink:href="#path-5"></use>
                <g id="Colour/@prism-dark" mask="url(#mask-6)" fill="#005285" fill-rule="evenodd">
                    <rect id="Rectangle" x="0" y="0" width="10" height="10"></rect>
                </g>
            </g>
        </g>
    </g>
</svg>