<?xml version="1.0" encoding="UTF-8"?>
<svg width="32px" height="32px" viewBox="0 0 32 32" version="1.1" xmlns="http://www.w3.org/2000/svg" xmlns:xlink="http://www.w3.org/1999/xlink">
    <!-- Generator: Sketch 55.1 (78136) - https://sketchapp.com -->
    <title>ellipsis</title>
    <desc>Created with Sketch.</desc>
    <g id="ellipsis" stroke="none" stroke-width="1" fill="none" fill-rule="evenodd">
        <path d="M11,17.5 C10.1715729,17.5 9.5,16.8284271 9.5,16 C9.5,15.1715729 10.1715729,14.5 11,14.5 C11.8284271,14.5 12.5,15.1715729 12.5,16 C12.5,16.8284271 11.8284271,17.5 11,17.5 Z M16,17.5 C15.1715729,17.5 14.5,16.8284271 14.5,16 C14.5,15.1715729 15.1715729,14.5 16,14.5 C16.8284271,14.5 17.5,15.1715729 17.5,16 C17.5,16.8284271 16.8284271,17.5 16,17.5 Z M21,17.5 C20.1715729,17.5 19.5,16.8284271 19.5,16 C19.5,15.1715729 20.1715729,14.5 21,14.5 C21.8284271,14.5 22.5,15.1715729 22.5,16 C22.5,16.8284271 21.8284271,17.5 21,17.5 Z" fill="#0B75B7"></path>
        <circle id="button-outer" stroke="#005285" cx="16" cy="16" r="15.5"></circle>
    </g>
</svg>