<?xml version="1.0" encoding="UTF-8"?>
<svg width="32px" height="32px" viewBox="0 0 32 32" version="1.1" xmlns="http://www.w3.org/2000/svg" xmlns:xlink="http://www.w3.org/1999/xlink">
    <!-- Generator: Sketch 55.1 (78136) - https://sketchapp.com -->
    <title>gear</title>
    <desc>Created with Sketch.</desc>
    <defs>
        <path d="M20.7914771,8.3800958 L22.363961,6.80761184 C22.7544853,6.41708755 23.3876503,6.41708755 23.7781746,6.80761184 L25.1923882,8.22182541 C25.5829124,8.6123497 25.5829124,9.24551468 25.1923882,9.63603897 L23.6199042,11.2085229 C24.1529337,12.0544216 24.5490027,12.9952899 24.7769836,14 L27,14 C27.5522847,14 28,14.4477153 28,15 L28,17 C28,17.5522847 27.5522847,18 27,18 L24.7769836,18 C24.5490027,19.0047101 24.1529337,19.9455784 23.6199042,20.7914771 L25.1923882,22.363961 C25.5829124,22.7544853 25.5829124,23.3876503 25.1923882,23.7781746 L23.7781746,25.1923882 C23.3876503,25.5829124 22.7544853,25.5829124 22.363961,25.1923882 L20.7914771,23.6199042 C19.9455784,24.1529337 19.0047101,24.5490027 18,24.7769836 L18,27 C18,27.5522847 17.5522847,28 17,28 L15,28 C14.4477153,28 14,27.5522847 14,27 L14,24.7769836 C12.9952899,24.5490027 12.0544216,24.1529337 11.2085229,23.6199042 L9.63603897,25.1923882 C9.24551468,25.5829124 8.6123497,25.5829124 8.22182541,25.1923882 L6.80761184,23.7781746 C6.41708755,23.3876503 6.41708755,22.7544853 6.80761184,22.363961 L8.3800958,20.7914771 C7.84706631,19.9455784 7.45099725,19.0047101 7.22301642,18 L5,18 C4.44771525,18 4,17.5522847 4,17 L4,15 C4,14.4477153 4.44771525,14 5,14 L7.22301642,14 C7.45099725,12.9952899 7.84706631,12.0544216 8.3800958,11.2085229 L6.80761184,9.63603897 C6.41708755,9.24551468 6.41708755,8.6123497 6.80761184,8.22182541 L8.22182541,6.80761184 C8.6123497,6.41708755 9.24551468,6.41708755 9.63603897,6.80761184 L11.2085229,8.3800958 C12.0544216,7.84706631 12.9952899,7.45099725 14,7.22301642 L14,5 C14,4.44771525 14.4477153,4 15,4 L17,4 C17.5522847,4 18,4.44771525 18,5 L18,7.22301642 C19.0047101,7.45099725 19.9455784,7.84706631 20.7914771,8.3800958 Z M16,22 C19.3137085,22 22,19.3137085 22,16 C22,12.6862915 19.3137085,10 16,10 C12.6862915,10 10,12.6862915 10,16 C10,19.3137085 12.6862915,22 16,22 Z" id="path-1"></path>
    </defs>
    <g id="gear" stroke="none" stroke-width="1" fill="none" fill-rule="evenodd">
        <circle id="button-outer" stroke="#005285" cx="16" cy="16" r="15.5"></circle>
        <g id="atom/icon/cog">
            <mask id="mask-2" fill="white">
                <use xlink:href="#path-1"></use>
            </mask>
            <use id="icon-colour" fill="#0B75B7" fill-rule="evenodd" xlink:href="#path-1"></use>
        </g>
    </g>
</svg>