<?xml version="1.0" encoding="UTF-8"?>
<svg width="32px" height="32px" viewBox="0 0 32 32" version="1.1" xmlns="http://www.w3.org/2000/svg" xmlns:xlink="http://www.w3.org/1999/xlink">
    <!-- Generator: Sketch 55.1 (78136) - https://sketchapp.com -->
    <title>menu</title>
    <desc>Created with Sketch.</desc>
    <g id="menu" stroke="none" stroke-width="1" fill="none" fill-rule="evenodd">
        <path d="M21.9999211,19.9765758 C22.002112,20.5180755 21.556183,20.9587956 21.0039027,20.9609518 L11.0039819,21 C10.4517016,21.0021482 10.0022072,20.5649239 10,20.0234242 C9.99780904,19.4819245 10.443738,19.0412044 10.9960184,19.0390482 L20.9959391,19 C21.5482195,18.9978518 21.9977139,19.4350761 21.9999211,19.9765758 Z M21.9999211,15.9765758 C22.002112,16.5180755 21.556183,16.9587956 21.0039027,16.9609518 L11.0039819,17 C10.4517016,17.0021482 10.0022072,16.5649239 10,16.0234242 C9.99780904,15.4819245 10.443738,15.0412044 10.9960184,15.0390482 L20.9959391,15 C21.5482195,14.9978518 21.9977139,15.4350761 21.9999211,15.9765758 Z M21.9999211,11.9765758 C22.002112,12.5180755 21.556183,12.9587956 21.0039027,12.9609518 L11.0039819,13 C10.4517016,13.0021482 10.0022072,12.5649239 10,12.0234242 C9.99780904,11.4819245 10.443738,11.0412044 10.9960184,11.0390482 L20.9959391,11 C21.5482195,10.9978518 21.9977139,11.4350761 21.9999211,11.9765758 Z" id="icon" fill="#0B75B7"></path>
        <circle id="button-outer" stroke="#005285" cx="16" cy="16" r="15.5"></circle>
    </g>
</svg>