<?xml version="1.0" encoding="UTF-8"?>
<svg width="32px" height="32px" viewBox="0 0 32 32" version="1.1" xmlns="http://www.w3.org/2000/svg" xmlns:xlink="http://www.w3.org/1999/xlink">
    <!-- Generator: Sketch 55.1 (78136) - https://sketchapp.com -->
    <title>play copy</title>
    <desc>Created with Sketch.</desc>
    <g id="play-copy" stroke="none" stroke-width="1" fill="none" fill-rule="evenodd">
        <circle id="button-outer" stroke="#434A4F" fill="#0D6020" cx="16" cy="16" r="15.5"></circle>
        <path d="M10,9 L13,9 C13.5522847,9 14,9.44771525 14,10 L14,22 C14,22.5522847 13.5522847,23 13,23 L10,23 C9.44771525,23 9,22.5522847 9,22 L9,10 C9,9.44771525 9.44771525,9 10,9 Z M19,9 L22,9 C22.5522847,9 23,9.44771525 23,10 L23,22 C23,22.5522847 22.5522847,23 22,23 L19,23 C18.4477153,23 18,22.5522847 18,22 L18,10 C18,9.44771525 18.4477153,9 19,9 Z" id="Combined-Shape" fill="#E4F0FB"></path>
    </g>
</svg>