<?xml version="1.0" encoding="UTF-8"?>
<svg width="36px" height="36px" viewBox="0 0 36 36" version="1.1" xmlns="http://www.w3.org/2000/svg" xmlns:xlink="http://www.w3.org/1999/xlink">
    <!-- Generator: Sketch 55 (78076) - https://sketchapp.com -->
    <title>Refresh</title>
    <desc>Created with Sketch.</desc>
    <defs>
        <circle id="path-1" cx="18" cy="18" r="18"></circle>
        <path d="M28.8,20.88 C27.2094199,20.88 25.92,19.5905801 25.92,18 C25.92,16.4094199 27.2094199,15.12 28.8,15.12 C30.3905801,15.12 31.68,16.4094199 31.68,18 C31.68,19.5905801 30.3905801,20.88 28.8,20.88 Z M18,20.88 C16.4094199,20.88 15.12,19.5905801 15.12,18 C15.12,16.4094199 16.4094199,15.12 18,15.12 C19.5905801,15.12 20.88,16.4094199 20.88,18 C20.88,19.5905801 19.5905801,20.88 18,20.88 Z M7.2,20.88 C5.60941992,20.88 4.32,19.5905801 4.32,18 C4.32,16.4094199 5.60941992,15.12 7.2,15.12 C8.79058008,15.12 10.08,16.4094199 10.08,18 C10.08,19.5905801 8.79058008,20.88 7.2,20.88 Z" id="path-3"></path>
        <path d="M18,36 C8.0588745,36 0,27.9411255 0,18 C0,8.0588745 8.0588745,0 18,0 C27.9411255,0 36,8.0588745 36,18 C36,27.9411255 27.9411255,36 18,36 Z M18,35.027027 C27.4037674,35.027027 35.027027,27.4037674 35.027027,18 C35.027027,8.59623264 27.4037674,0.972972973 18,0.972972973 C8.59623264,0.972972973 0.972972973,8.59623264 0.972972973,18 C0.972972973,27.4037674 8.59623264,35.027027 18,35.027027 Z" id="path-5"></path>
    </defs>
    <g id="Symbols" stroke="none" stroke-width="1" fill="none" fill-rule="evenodd">
        <g id="Organism/navbar" transform="translate(-679.000000, -42.000000)">
            <g id="Refresh" transform="translate(679.000000, 42.000000)">
                <mask id="mask-2" fill="white">
                    <use xlink:href="#path-1"></use>
                </mask>
                <g id="Background"></g>
                <g id="Background-colour" mask="url(#mask-2)" fill="#FFFFFF">
                    <rect id="Rectangle" x="0" y="0" width="36" height="36"></rect>
                </g>
                <g id="atom/icon/elipsis" mask="url(#mask-2)">
                    <mask id="mask-4" fill="white">
                        <use xlink:href="#path-3"></use>
                    </mask>
                    <use id="Ellipisis" fill="#D8D8D8" fill-rule="evenodd" xlink:href="#path-3"></use>
                    <g id="Colour/@prism-prime" mask="url(#mask-4)" fill="#0C75B7" fill-rule="evenodd">
                        <rect id="Rectangle" x="0" y="0" width="36" height="36"></rect>
                    </g>
                </g>
                <mask id="mask-6" fill="white">
                    <use xlink:href="#path-5"></use>
                </mask>
                <use id="Background" fill="#979797" fill-rule="nonzero" xlink:href="#path-5"></use>
                <g id="Colour/@prism-dark" mask="url(#mask-6)" fill="#005285">
                    <rect id="Rectangle" x="0" y="0" width="36" height="36"></rect>
                </g>
            </g>
        </g>
    </g>
</svg>