<?xml version="1.0" encoding="UTF-8"?>
<svg width="32px" height="32px" viewBox="0 0 32 32" version="1.1" xmlns="http://www.w3.org/2000/svg" xmlns:xlink="http://www.w3.org/1999/xlink">
    <!-- Generator: Sketch 55.1 (78136) - https://sketchapp.com -->
    <title>Group</title>
    <desc>Created with Sketch.</desc>
    <defs>
        <path d="M13.6558464,25.7242629 L7.37770889,28.6348142 C6.45189047,29.0640246 5.36827856,28.6279703 4.95739394,27.6608596 C4.82739848,27.3548857 4.77642098,27.0186712 4.80953986,26.6857102 L5.51939926,19.5491315 C5.57296021,19.0106561 5.4059249,18.4736458 5.05959902,18.0708965 L0.469637223,12.7331374 C-0.207230897,11.9459938 -0.145079861,10.7347049 0.608455447,10.0276479 C0.846858544,9.80394961 1.13721198,9.64940879 1.4505905,9.57942095 L8.1674453,8.07932399 C8.6742514,7.96613734 9.1115555,7.63424675 9.37121796,7.16572446 L12.8126031,0.956256671 C13.320094,0.0405647824 14.4421174,-0.271998605 15.3187124,0.258126806 C15.5960491,0.4258476 15.8264749,0.666550561 15.9870346,0.956256671 L19.4284198,7.16572446 C19.6880822,7.63424675 20.1253863,7.96613734 20.6321924,8.07932399 L27.3490472,9.57942095 C28.339562,9.80063582 28.9708595,10.8187499 28.7590897,11.8534424 C28.6920901,12.1807979 28.5441477,12.4841013 28.3300005,12.7331374 L23.7400387,18.0708965 C23.3937128,18.4736458 23.2266775,19.0106561 23.2802385,19.5491315 L23.9900979,26.6857102 C24.0947787,27.7381204 23.3629187,28.6799129 22.3554427,28.7892627 C22.036698,28.8238587 21.7148388,28.7706075 21.4219288,28.6348142 L15.1437913,25.7242629 C14.6700877,25.5046534 14.1295501,25.5046534 13.6558464,25.7242629 L13.6558464,25.7242629 Z" id="path-1"></path>
        <polygon id="path-3" points="0 0 32 0 32 32 0 32"></polygon>
    </defs>
    <g id="Unassigned_filter" stroke="none" stroke-width="1" fill="none" fill-rule="evenodd">
        <g id="Artboard">
            <g id="Group" transform="translate(1.600000, 1.600000)">
                <mask id="mask-2" fill="white">
                    <use xlink:href="#path-1"></use>
                </mask>
                <path stroke="#5D5D5D" d="M13.8661466,26.177886 L7.58800901,29.0884372 C6.40275455,29.6379224 5.017232,29.0803768 4.49720494,27.8563745 C4.33433795,27.4730299 4.27058384,27.0525493 4.31199511,26.6362206 L5.02185452,19.4996419 C5.06194906,19.096551 4.9371714,18.695397 4.68048848,18.3968952 L0.0905266821,13.0591361 C-0.760568539,12.0693803 -0.682794439,10.5536067 0.266325856,9.66302846 C0.569695676,9.3783706 0.940455782,9.18103328 1.34160869,9.0914425 L8.05846349,7.59134554 C8.42448295,7.50960123 8.74292465,7.26792088 8.93389081,6.92335085 L12.375276,0.713883057 C13.0189959,-0.447613925 14.4560036,-0.847922859 15.5774547,-0.169719477 C15.9299214,0.0434365782 16.2217246,0.348254452 16.4243618,0.713883057 L19.8657469,6.92335085 C20.0567131,7.26792088 20.3751548,7.50960123 20.7411742,7.59134554 L27.458029,9.0914425 C28.7189879,9.37305654 29.5145251,10.6560452 29.2489353,11.9536987 C29.1649321,12.3641326 28.979049,12.7452198 28.709111,13.0591361 L24.1191492,18.3968952 C23.8624663,18.695397 23.7376887,19.096551 23.7777832,19.4996419 L24.4876426,26.6362206 C24.6190266,27.9570906 23.6944622,29.1468643 22.409395,29.2863433 C22.0000865,29.3307689 21.5868815,29.2624048 21.2116287,29.0884372 L14.9334912,26.177886 C14.5931694,26.0201124 14.2064684,26.0201124 13.8661466,26.177886 Z"></path>
                <g id="Colour/@Hash" mask="url(#mask-2)">
                    <g transform="translate(-1.600000, -1.600000)">
                        <mask id="mask-4" fill="white">
                            <use xlink:href="#path-3"></use>
                        </mask>
                        <g id="Mask" stroke="none" fill="none"></g>
                        <g id="Group" stroke="none" stroke-width="1" fill="none" fill-rule="evenodd" mask="url(#mask-4)">
                            <g transform="translate(15.814582, 15.814582) rotate(-45.191276) translate(-15.814582, -15.814582) translate(-16.185418, -16.185418)" stroke="#979797" stroke-width="0.5">
                                <path d="M-28.5607309,31.4033291 L33.0876875,31.4783486" id="Path-2" transform="translate(2.263478, 31.440839) rotate(-90.249842) translate(-2.263478, -31.440839) "></path>
                                <path d="M-25.9301701,31.387418 L35.7182483,31.4624374" id="Path-2-Copy" transform="translate(4.894039, 31.424928) rotate(-90.249842) translate(-4.894039, -31.424928) "></path>
                                <path d="M-23.5147341,31.372808 L38.1336842,31.4478275" id="Path-2-Copy-2" transform="translate(7.309475, 31.410318) rotate(-90.249842) translate(-7.309475, -31.410318) "></path>
                                <path d="M-21.0992982,31.3581981 L40.5491202,31.4332176" id="Path-2-Copy-3" transform="translate(9.724911, 31.395708) rotate(-90.249842) translate(-9.724911, -31.395708) "></path>
                                <path d="M-18.6838622,31.3435882 L42.9645562,31.4186077" id="Path-2-Copy-4" transform="translate(12.140347, 31.381098) rotate(-90.249842) translate(-12.140347, -31.381098) "></path>
                                <path d="M-16.2684262,31.3289783 L45.3799922,31.4039978" id="Path-2-Copy-5" transform="translate(14.555783, 31.366488) rotate(-90.249842) translate(-14.555783, -31.366488) "></path>
                                <path d="M-13.8529903,31.3143684 L47.7954281,31.3893879" id="Path-2-Copy-6" transform="translate(16.971219, 31.351878) rotate(-90.249842) translate(-16.971219, -31.351878) "></path>
                                <path d="M-11.4375543,31.2997585 L50.2108641,31.374778" id="Path-2-Copy-7" transform="translate(19.386655, 31.337268) rotate(-90.249842) translate(-19.386655, -31.337268) "></path>
                                <path d="M-9.02211831,31.2851486 L52.6263001,31.3601681" id="Path-2-Copy-8" transform="translate(21.802091, 31.322658) rotate(-90.249842) translate(-21.802091, -31.322658) "></path>
                                <path d="M-6.60668233,31.2705387 L55.0417361,31.3455581" id="Path-2-Copy-9" transform="translate(24.217527, 31.308048) rotate(-90.249842) translate(-24.217527, -31.308048) "></path>
                                <path d="M-4.19124636,31.2559287 L57.457172,31.3309482" id="Path-2-Copy-10" transform="translate(26.632963, 31.293438) rotate(-90.249842) translate(-26.632963, -31.293438) "></path>
                                <path d="M-1.77581039,31.2413188 L59.872608,31.3163383" id="Path-2-Copy-11" transform="translate(29.048399, 31.278829) rotate(-90.249842) translate(-29.048399, -31.278829) "></path>
                                <path d="M0.639625585,31.2267089 L62.288044,31.3017284" id="Path-2-Copy-12" transform="translate(31.463835, 31.264219) rotate(-90.249842) translate(-31.463835, -31.264219) "></path>
                                <path d="M3.05506156,31.212099 L64.7034799,31.2871185" id="Path-2-Copy-13" transform="translate(33.879271, 31.249609) rotate(-90.249842) translate(-33.879271, -31.249609) "></path>
                                <path d="M5.47049753,31.1974891 L67.1189159,31.2725086" id="Path-2-Copy-14" transform="translate(36.294707, 31.234999) rotate(-90.249842) translate(-36.294707, -31.234999) "></path>
                                <path d="M7.8859335,31.1828792 L69.5343519,31.2578987" id="Path-2-Copy-15" transform="translate(38.710143, 31.220389) rotate(-90.249842) translate(-38.710143, -31.220389) "></path>
                                <path d="M10.3013695,31.1682693 L71.9497879,31.2432888" id="Path-2-Copy-16" transform="translate(41.125579, 31.205779) rotate(-90.249842) translate(-41.125579, -31.205779) "></path>
                                <path d="M12.7168054,31.1536594 L74.3652238,31.2286788" id="Path-2-Copy-17" transform="translate(43.541015, 31.191169) rotate(-90.249842) translate(-43.541015, -31.191169) "></path>
                                <path d="M15.1322414,31.1390494 L76.7806598,31.2140689" id="Path-2-Copy-18" transform="translate(45.956451, 31.176559) rotate(-90.249842) translate(-45.956451, -31.176559) "></path>
                                <path d="M17.5476774,31.1244395 L79.1960958,31.199459" id="Path-2-Copy-19" transform="translate(48.371887, 31.161949) rotate(-90.249842) translate(-48.371887, -31.161949) "></path>
                                <path d="M19.9561503,31.1382508 L81.6045687,31.2132703" id="Path-2-Copy-20" transform="translate(50.780359, 31.175761) rotate(-90.249842) translate(-50.780359, -31.175761) "></path>
                                <path d="M22.3716092,31.1382508 L84.0200276,31.2132703" id="Path-2-Copy-21" transform="translate(53.195818, 31.175761) rotate(-90.249842) translate(-53.195818, -31.175761) "></path>
                                <path d="M24.7870681,31.1382508 L86.4354865,31.2132703" id="Path-2-Copy-22" transform="translate(55.611277, 31.175761) rotate(-90.249842) translate(-55.611277, -31.175761) "></path>
                                <path d="M27.2025271,31.1382508 L88.8509455,31.2132703" id="Path-2-Copy-23" transform="translate(58.026736, 31.175761) rotate(-90.249842) translate(-58.026736, -31.175761) "></path>
                                <path d="M29.617986,31.1382508 L91.2664044,31.2132703" id="Path-2-Copy-24" transform="translate(60.442195, 31.175761) rotate(-90.249842) translate(-60.442195, -31.175761) "></path>
                                <path d="M32.033445,31.1382508 L93.6818633,31.2132703" id="Path-2-Copy-25" transform="translate(62.857654, 31.175761) rotate(-90.249842) translate(-62.857654, -31.175761) "></path>
                            </g>
                        </g>
                    </g>
                </g>
            </g>
        </g>
    </g>
</svg>