<?xml version="1.0" encoding="UTF-8"?>
<svg width="36px" height="36px" viewBox="0 0 36 36" version="1.1" xmlns="http://www.w3.org/2000/svg" xmlns:xlink="http://www.w3.org/1999/xlink">
    <!-- Generator: Sketch 55 (78076) - https://sketchapp.com -->
    <title>Toggle metrics</title>
    <desc>Created with Sketch.</desc>
    <defs>
        <circle id="path-1" cx="18" cy="18" r="18"></circle>
        <path d="M18,23.4 C14.6862915,23.4 11.6862915,21.6 9,18 C11.6862915,14.4 14.6862915,12.6 18,12.6 C21.3137085,12.6 24.3137085,14.4 27,18 C24.3137085,21.6 21.3137085,23.4 18,23.4 Z M18,19.8 C18.9941125,19.8 19.8,18.9941125 19.8,18 C19.8,17.0058875 18.9941125,16.2 18,16.2 C17.0058875,16.2 16.2,17.0058875 16.2,18 C16.2,18.9941125 17.0058875,19.8 18,19.8 Z" id="path-3"></path>
        <path d="M18,36 C8.0588745,36 0,27.9411255 0,18 C0,8.0588745 8.0588745,0 18,0 C27.9411255,0 36,8.0588745 36,18 C36,27.9411255 27.9411255,36 18,36 Z M18,35.027027 C27.4037674,35.027027 35.027027,27.4037674 35.027027,18 C35.027027,8.59623264 27.4037674,0.972972973 18,0.972972973 C8.59623264,0.972972973 0.972972973,8.59623264 0.972972973,18 C0.972972973,27.4037674 8.59623264,35.027027 18,35.027027 Z" id="path-5"></path>
    </defs>
    <g id="Symbols" stroke="none" stroke-width="1" fill="none" fill-rule="evenodd">
        <g id="Organism/task-card" transform="translate(-14.000000, -86.000000)">
            <g id="atom/button/circular" transform="translate(14.000000, 86.000000)">
                <mask id="mask-2" fill="white">
                    <use xlink:href="#path-1"></use>
                </mask>
                <g id="Background"></g>
                <g id="Colour/@prism-paper" mask="url(#mask-2)" fill="#FFFFFF" fill-rule="evenodd">
                    <rect id="Rectangle" x="0" y="0" width="36" height="36"></rect>
                </g>
                <g id="atom/icon/eyeball" mask="url(#mask-2)">
                    <mask id="mask-4" fill="white">
                        <use xlink:href="#path-3"></use>
                    </mask>
                    <use id="Combined-Shape" fill="#D8D8D8" fill-rule="evenodd" xlink:href="#path-3"></use>
                    <g id="Colour/@prism-prime" mask="url(#mask-4)" fill="#0C75B7" fill-rule="evenodd">
                        <rect id="Rectangle" x="0" y="0" width="36" height="36"></rect>
                    </g>
                </g>
                <mask id="mask-6" fill="white">
                    <use xlink:href="#path-5"></use>
                </mask>
                <use id="Background" fill="#979797" fill-rule="nonzero" xlink:href="#path-5"></use>
                <g id="Colour/@prism-dark" mask="url(#mask-6)" fill="#005285" fill-rule="evenodd">
                    <rect id="Rectangle" x="0" y="0" width="36" height="36"></rect>
                </g>
            </g>
        </g>
    </g>
</svg>